<svg width="25" height="25" viewBox="0 0 25 25" fill="none" xmlns="http://www.w3.org/2000/svg">
<g clip-path="url(#clip0_55_2088)">
<path d="M7.56241 9.46386H12.1242C12.1242 5.05821 11.3801 0.00110817 5.97811 0.00110817C2.30624 0.00110817 0.024287 2.85671 0.024287 6.19651C0.024287 11.4001 7.57159 14.522 7.57159 20.2588C7.57159 22.2675 6.73138 23.638 6.01105 23.63C4.42675 23.6109 4.56174 15.5362 4.56174 15.5362H-1.11445e-05C-0.00703089 19.3932 0.720322 24.999 6.24216 24.999C9.26605 24.999 12.3164 22.5546 12.3164 18.5133C12.3164 13.0918 4.57362 10.4541 4.57362 4.35509C4.57362 2.22444 5.26101 1.36366 5.78912 1.37218C7.56241 1.39722 7.56241 9.46386 7.56241 9.46386Z" fill="white"/>
<path d="M16.6341 0.193357H11.9724V24.8061H16.6341V0.193357Z" fill="white"/>
<path d="M16.4386 11.7852H16.7086C16.7086 11.7852 19.713 10.9713 19.713 0.195488H25.0005C25.0005 0.195488 25.0005 9.46382 18.4743 12.4798V12.5V12.5224C25.0005 15.5362 25.0005 24.8045 25.0005 24.8045H19.713C19.713 14.0287 16.7086 13.2148 16.7086 13.2148H16.4386V11.7852Z" fill="white"/>
<path d="M12.0097 6.42232H11.9352V6.49582H12.0097V6.42232Z" fill="white"/>
<path d="M12.0097 20.7488H11.9352V20.8223H12.0097V20.7488Z" fill="white"/>
<path d="M12.0076 16.496H11.933V16.5695H12.0076V16.496Z" fill="white"/>
</g>
<defs>
<clipPath id="clip0_55_2088">
<rect width="25" height="25" fill="white"/>
</clipPath>
</defs>
</svg>
